<svg width="115" height="40" viewBox="0 0 115 40" fill="none" xmlns="http://www.w3.org/2000/svg">
<path d="M18.9485 7.67C23.0085 7.67 26.4735 8.87167 29.3435 11.275C32.2368 13.6783 33.6835 16.49 33.6835 19.71C33.6835 22.93 32.7035 25.4733 30.7435 27.34C28.7835 29.2067 26.2985 30.1167 23.2885 30.07C21.6785 30.0467 20.3951 30.035 19.4385 30.035H17.7935C17.1168 30.035 16.7785 29.7783 16.7785 29.265C16.7785 29.0783 16.9768 28.6 17.3735 27.83C18.6801 25.2167 19.6718 22.545 20.3485 19.815C17.9451 19.815 15.6935 19.15 13.5935 17.82C11.4935 16.49 10.4435 14.985 10.4435 13.305C10.4435 11.6017 11.2368 10.2367 12.8235 9.21C14.4101 8.18333 16.4518 7.67 18.9485 7.67ZM18.8085 9.105C17.2685 9.105 16.0551 9.43167 15.1685 10.085C14.2818 10.7383 13.8385 11.7067 13.8385 12.99C13.8385 14.25 14.4451 15.3817 15.6585 16.385C16.8951 17.365 18.5401 17.9833 20.5935 18.24C21.3168 15.1833 21.7368 13.2117 21.8535 12.325L23.9535 12.535C23.9535 13.9817 23.6501 15.895 23.0435 18.275C23.2301 18.275 24.3151 18.1583 26.2985 17.925L26.4735 19.08C26.0068 19.2433 24.7118 19.4883 22.5885 19.815C21.6785 22.755 20.7335 25.2983 19.7535 27.445C22.0868 27.6317 24.0235 27.725 25.5635 27.725C27.1268 27.725 28.3635 27.1533 29.2735 26.01C30.1835 24.8433 30.6385 23.28 30.6385 21.32C30.6385 17.9367 29.4835 15.055 27.1735 12.675C24.8635 10.295 22.0751 9.105 18.8085 9.105ZM45.0442 19.605C45.6509 20.6083 45.9542 21.7167 45.9542 22.93C45.9542 24.82 45.3009 26.5117 43.9942 28.005C42.6876 29.475 41.1476 30.21 39.3742 30.21C38.0209 30.21 36.9592 29.825 36.1892 29.055C35.4426 28.2617 35.0692 27.1767 35.0692 25.8C35.0692 23.5833 35.9326 21.6 37.6592 19.85C39.3859 18.0767 41.3226 17.19 43.4692 17.19C43.8659 17.19 44.1459 17.2017 44.3092 17.225L44.4142 18.38C42.5476 18.38 40.9959 18.9167 39.7592 19.99C38.5226 21.0633 37.9042 22.44 37.9042 24.12C37.9042 25.1233 38.1492 25.94 38.6392 26.57C39.1292 27.1767 39.8409 27.48 40.7742 27.48C41.7309 27.48 42.4892 27.06 43.0492 26.22C43.6092 25.38 43.8892 24.4 43.8892 23.28C43.8892 22.1367 43.6676 21.0983 43.2242 20.165L45.0442 19.605ZM54.8462 26.08L55.6162 26.955C55.0328 27.865 54.3212 28.5767 53.4812 29.09C52.6645 29.6033 51.8362 29.86 50.9962 29.86C50.1562 29.86 49.4912 29.6267 49.0012 29.16C48.5112 28.67 48.2662 28.005 48.2662 27.165C48.2662 25.205 49.0012 22.4983 50.4712 19.045C49.2812 19.2317 48.0912 19.5117 46.9012 19.885L46.6562 18.52L46.6212 18.485C47.7878 17.995 49.3162 17.5983 51.2062 17.295C51.3928 16.945 51.8128 16.0933 52.4662 14.74C53.7728 12.0567 54.7062 10.3183 55.2662 9.525L56.7712 10.12C56.5378 10.6333 56.1295 11.4967 55.5462 12.71C54.9628 13.9 54.3095 15.2533 53.5862 16.77C54.6362 16.7 55.4645 16.665 56.0712 16.665C56.6778 16.665 57.1445 16.7583 57.4712 16.945V18.45C57.1445 18.38 56.6662 18.345 56.0362 18.345C55.4295 18.345 54.3328 18.45 52.7462 18.66C51.3695 21.74 50.6812 23.98 50.6812 25.38C50.6812 25.9167 50.8445 26.36 51.1712 26.71C51.5212 27.06 51.9762 27.235 52.5362 27.235C53.1195 27.235 53.8895 26.85 54.8462 26.08ZM65.6989 16.245L64.5789 20.48L69.1289 19.955L68.1139 21.6L64.1939 22.125C63.8906 23.385 63.3772 25.2867 62.6539 27.83C61.0906 33.3367 60.3089 36.825 60.3089 38.295L58.0689 39.45C58.0689 37.4433 58.9322 33.57 60.6589 27.83C61.5456 24.96 62.0939 23.1167 62.3039 22.3C61.4872 22.51 60.7406 22.615 60.0639 22.615C58.7339 22.615 58.0689 22.09 58.0689 21.04C58.0689 20.4567 58.5122 19.7567 59.3989 18.94C60.6822 17.75 62.2106 16.7 63.9839 15.79C65.3606 11.1 66.3522 8.16 66.9589 6.97C67.7756 5.36 68.5222 4.33333 69.1989 3.89C70.2022 3.26 71.2406 2.945 72.3139 2.945C73.3872 2.945 74.1456 3.24833 74.5889 3.855C75.0322 4.46167 75.2306 5.17333 75.1839 5.99C75.0672 8.93 71.9056 12.3483 65.6989 16.245ZM71.2989 5.92C69.9922 5.92 69.0239 6.55 68.3939 7.81C67.9039 8.79 67.4722 9.96833 67.0989 11.345C66.7256 12.7217 66.4572 13.6667 66.2939 14.18C67.5772 13.3867 68.9539 12.3133 70.4239 10.96C71.8939 9.60666 72.6522 8.42833 72.6989 7.425C72.7456 6.42167 72.2789 5.92 71.2989 5.92ZM62.7939 20.655L63.5639 17.575C62.6772 17.9483 61.9772 18.3333 61.4639 18.73C60.9739 19.1267 60.7289 19.465 60.7289 19.745C60.7289 20.3517 61.4172 20.655 62.7939 20.655ZM75.5976 26.64L76.3326 27.235C75.5393 28.4717 74.8509 29.37 74.2676 29.93C73.7076 30.4667 73.0776 30.735 72.3776 30.735C71.6776 30.735 71.1059 30.455 70.6626 29.895C70.2193 29.335 69.9976 28.635 69.9976 27.795C69.9976 26.1617 71.0709 22.65 73.2176 17.26C75.3643 11.8467 77.5693 7.08667 79.8326 2.98L81.3726 3.82C79.0859 8.25333 77.0209 12.6633 75.1776 17.05C73.3343 21.4133 72.4126 24.5517 72.4126 26.465C72.4126 27.5617 72.8209 28.11 73.6376 28.11C74.2909 28.11 74.9443 27.62 75.5976 26.64ZM86.7796 15.16C85.4729 15.16 84.8196 14.635 84.8196 13.585C84.8196 13.0017 84.9829 12.5117 85.3096 12.115C85.6362 11.7183 86.0562 11.52 86.5696 11.52C87.0829 11.52 87.5029 11.6717 87.8296 11.975C88.1562 12.2783 88.3196 12.675 88.3196 13.165C88.3196 13.655 88.1796 14.11 87.8996 14.53C87.6196 14.95 87.2462 15.16 86.7796 15.16ZM86.3246 25.485L87.0246 26.08C86.4646 27.1533 85.7179 28.075 84.7846 28.845C83.8746 29.5917 83.0462 29.965 82.2996 29.965C80.9929 29.965 80.3396 29.055 80.3396 27.235C80.3396 24.9717 81.2729 22.02 83.1396 18.38C83.5596 17.5867 83.8046 17.12 83.8746 16.98L85.3796 17.89C84.8896 18.7767 84.2829 20.1883 83.5596 22.125C82.8596 24.0617 82.5096 25.31 82.5096 25.87C82.5096 26.4067 82.6262 26.7917 82.8596 27.025C83.0929 27.2583 83.3729 27.375 83.6996 27.375C84.3296 27.375 85.2046 26.745 86.3246 25.485ZM95.5498 24.155C94.1731 25.3917 92.3181 27.41 89.9848 30.21L89.0048 29.405C89.4481 28.3317 91.3498 26.0917 94.7098 22.685C93.8231 20.5383 93.3331 18.7767 93.2398 17.4L95.5498 16.98C95.6665 17.1433 96.1215 18.555 96.9148 21.215C99.8548 19.115 101.943 17.7733 103.18 17.19L103.845 18.135C103.448 18.4617 102.748 18.9633 101.745 19.64C99.0615 21.46 97.6498 22.44 97.5098 22.58C98.7698 25.2633 100.275 27.5733 102.025 29.51L100.38 30.56C98.4665 29.16 96.8565 27.025 95.5498 24.155Z" fill="#FCA311"/>
</svg>
